<mxfile host="app.diagrams.net" agent="Mozilla/5.0 (Macintosh; Intel Mac OS X 10_15_7) AppleWebKit/605.1.15 (KHTML, like Gecko) Version/18.5 Safari/605.1.15" version="28.0.6">
  <diagram name="Page-1" id="zp_pjIEAR72tDuzp3WbZ">
    <mxGraphModel dx="1097" dy="596" grid="1" gridSize="10" guides="1" tooltips="1" connect="1" arrows="1" fold="1" page="1" pageScale="1" pageWidth="827" pageHeight="1169" math="1" shadow="0">
      <root>
        <mxCell id="0" />
        <mxCell id="1" parent="0" />
        <mxCell id="8KXjDMzFBjp-nOxU9ci0-1" value="" style="rounded=0;whiteSpace=wrap;html=1;" vertex="1" parent="1">
          <mxGeometry x="590" y="140" width="810" height="450" as="geometry" />
        </mxCell>
        <mxCell id="8KXjDMzFBjp-nOxU9ci0-2" value="&lt;b&gt;&lt;font face=&quot;Times New Roman&quot; style=&quot;font-size: 23px;&quot;&gt;Người gửi&lt;/font&gt;&lt;/b&gt;" style="shape=umlActor;verticalLabelPosition=bottom;verticalAlign=top;html=1;outlineConnect=0;" vertex="1" parent="1">
          <mxGeometry x="790" y="261" width="50" height="80" as="geometry" />
        </mxCell>
        <mxCell id="8KXjDMzFBjp-nOxU9ci0-3" value="&lt;br&gt;&lt;div&gt;&lt;font style=&quot;font-size: 23px;&quot;&gt;$$C=m^e \text{ mod } n$$&lt;/font&gt;&lt;/div&gt;" style="rounded=1;whiteSpace=wrap;html=1;" vertex="1" parent="1">
          <mxGeometry x="700" y="383" width="205" height="100" as="geometry" />
        </mxCell>
        <mxCell id="8KXjDMzFBjp-nOxU9ci0-4" value="&lt;b&gt;&lt;font face=&quot;Times New Roman&quot; style=&quot;font-size: 23px;&quot;&gt;Người nhận&lt;/font&gt;&lt;/b&gt;" style="shape=umlActor;verticalLabelPosition=bottom;verticalAlign=top;html=1;outlineConnect=0;" vertex="1" parent="1">
          <mxGeometry x="1175" y="260" width="50" height="80" as="geometry" />
        </mxCell>
        <mxCell id="8KXjDMzFBjp-nOxU9ci0-5" value="&lt;br&gt;&lt;div&gt;&lt;font style=&quot;font-size: 23px;&quot;&gt;$$m=C^d \text{ mod } n$$&lt;/font&gt;&lt;/div&gt;" style="rounded=1;whiteSpace=wrap;html=1;" vertex="1" parent="1">
          <mxGeometry x="1099" y="387" width="205" height="113" as="geometry" />
        </mxCell>
        <mxCell id="8KXjDMzFBjp-nOxU9ci0-8" style="edgeStyle=orthogonalEdgeStyle;rounded=0;orthogonalLoop=1;jettySize=auto;html=1;entryX=0.01;entryY=0.405;entryDx=0;entryDy=0;entryPerimeter=0;" edge="1" parent="1" source="8KXjDMzFBjp-nOxU9ci0-3" target="8KXjDMzFBjp-nOxU9ci0-5">
          <mxGeometry relative="1" as="geometry" />
        </mxCell>
        <mxCell id="8KXjDMzFBjp-nOxU9ci0-9" value="&lt;font style=&quot;font-size: 23px;&quot;&gt;$$C$$&lt;/font&gt;" style="text;html=1;align=center;verticalAlign=middle;resizable=0;points=[];autosize=1;strokeColor=none;fillColor=none;" vertex="1" parent="1">
          <mxGeometry x="956" y="400" width="90" height="40" as="geometry" />
        </mxCell>
        <mxCell id="8KXjDMzFBjp-nOxU9ci0-10" value="&lt;font style=&quot;font-size: 23px;&quot;&gt;$$d$$&lt;/font&gt;" style="text;html=1;align=center;verticalAlign=middle;resizable=0;points=[];autosize=1;strokeColor=none;fillColor=none;" vertex="1" parent="1">
          <mxGeometry x="898" y="150" width="90" height="40" as="geometry" />
        </mxCell>
        <mxCell id="8KXjDMzFBjp-nOxU9ci0-11" style="edgeStyle=orthogonalEdgeStyle;rounded=0;orthogonalLoop=1;jettySize=auto;html=1;exitX=1;exitY=0.75;exitDx=0;exitDy=0;" edge="1" parent="1" source="8KXjDMzFBjp-nOxU9ci0-17">
          <mxGeometry relative="1" as="geometry">
            <mxPoint x="1203" y="261" as="targetPoint" />
            <mxPoint x="1003" y="192.45000000000005" as="sourcePoint" />
            <Array as="points">
              <mxPoint x="1060" y="193" />
              <mxPoint x="1204" y="193" />
            </Array>
          </mxGeometry>
        </mxCell>
        <mxCell id="8KXjDMzFBjp-nOxU9ci0-12" value="&lt;font face=&quot;Times New Roman&quot; style=&quot;font-size: 23px;&quot;&gt;Khoá bí mật của người nhận:&lt;/font&gt;" style="text;html=1;align=center;verticalAlign=middle;resizable=0;points=[];autosize=1;strokeColor=none;fillColor=none;" vertex="1" parent="1">
          <mxGeometry x="654.5" y="150" width="290" height="40" as="geometry" />
        </mxCell>
        <mxCell id="8KXjDMzFBjp-nOxU9ci0-13" value="&lt;font face=&quot;Times New Roman&quot; style=&quot;font-size: 23px;&quot;&gt;Khoá công khai của người nhận:&amp;nbsp;&lt;/font&gt;" style="text;html=1;align=center;verticalAlign=middle;resizable=0;points=[];autosize=1;strokeColor=none;fillColor=none;" vertex="1" parent="1">
          <mxGeometry x="652.5" y="180" width="330" height="40" as="geometry" />
        </mxCell>
        <mxCell id="8KXjDMzFBjp-nOxU9ci0-14" value="&lt;font style=&quot;font-size: 23px;&quot;&gt;$$d=e^{-1} \text{ mod } &amp;nbsp;\phi(n)$$&lt;/font&gt;" style="text;html=1;align=center;verticalAlign=middle;resizable=0;points=[];autosize=1;strokeColor=none;fillColor=none;" vertex="1" parent="1">
          <mxGeometry x="604.5" y="210" width="360" height="40" as="geometry" />
        </mxCell>
        <mxCell id="8KXjDMzFBjp-nOxU9ci0-15" value="&lt;span style=&quot;caret-color: rgb(0, 0, 0); color: rgb(0, 0, 0); font-family: Helvetica; font-size: 23px; font-style: normal; font-variant-caps: normal; font-weight: 400; letter-spacing: normal; text-align: center; text-indent: 0px; text-transform: none; white-space: nowrap; word-spacing: 0px; -webkit-text-stroke-width: 0px; background-color: rgb(236, 236, 236); text-decoration: none; float: none; display: inline !important;&quot;&gt;$$(n,e)$$&lt;/span&gt;" style="text;whiteSpace=wrap;html=1;" vertex="1" parent="1">
          <mxGeometry x="1213" y="170" width="100" height="50" as="geometry" />
        </mxCell>
        <mxCell id="8KXjDMzFBjp-nOxU9ci0-16" value="" style="shape=curlyBracket;whiteSpace=wrap;html=1;rounded=1;flipH=1;labelPosition=right;verticalLabelPosition=middle;align=left;verticalAlign=middle;" vertex="1" parent="1">
          <mxGeometry x="1023" y="150" width="20" height="90" as="geometry" />
        </mxCell>
        <mxCell id="8KXjDMzFBjp-nOxU9ci0-17" value="&lt;span style=&quot;caret-color: rgb(0, 0, 0); color: rgb(0, 0, 0); font-family: Helvetica; font-size: 23px; font-style: normal; font-variant-caps: normal; font-weight: 400; letter-spacing: normal; text-align: center; text-indent: 0px; text-transform: none; white-space: nowrap; word-spacing: 0px; -webkit-text-stroke-width: 0px; background-color: rgb(236, 236, 236); text-decoration: none; float: none; display: inline !important;&quot;&gt;$$(n,e)$$&lt;/span&gt;" style="text;whiteSpace=wrap;html=1;" vertex="1" parent="1">
          <mxGeometry x="963" y="157" width="100" height="50" as="geometry" />
        </mxCell>
      </root>
    </mxGraphModel>
  </diagram>
</mxfile>
